<?xml version="1.0" encoding="utf-8"?>
<!-- Generator: Adobe Illustrator 23.0.0, SVG Export Plug-In . SVG Version: 6.00 Build 0)  -->
<svg version="1.1" id="Capa_1" xmlns="http://www.w3.org/2000/svg" xmlns:xlink="http://www.w3.org/1999/xlink" x="0px" y="0px"
	 viewBox="0 0 500 500" style="enable-background:new 0 0 500 500;" xml:space="preserve">
<style type="text/css">
	.st0{enable-background:new    ;}
	.st1{fill:#DF0024;}
	.st2{fill:#FFFFFF;}
	.st3{fill-rule:evenodd;clip-rule:evenodd;fill:#FFFFFF;}
</style>
<circle cx="250" cy="250" r="250"/>
<g id="_x38_3">
</g>
<g id="Milla">
</g>
<g id="_xB7_autoboutique·">
</g>
<g id="Rectángulo_1_copia_4_1_" class="st0">
	<g>
		<g>
			<path class="st1" d="M205.6,152.1c6.7-0.2,12.7,0.7,17.9,2.6c5.2,2,9.6,4.7,13,8.2c3.5,3.5,6,7.6,7.7,12.4
				c1.6,4.8,2.3,9.9,2,15.2c-0.3,4.7-1.3,9.5-3,14.4c-1.6,4.9-3.9,9.6-6.8,14c-2.9,4.4-6.3,8.5-10.4,12.3c-4.1,3.7-8.7,6.9-13.8,9.4
				c4.8,1.2,9,3,12.4,5.4s6.3,5.3,8.4,8.6s3.6,7,4.5,11c0.9,4.1,1.2,8.3,1,12.7c-0.4,7.2-2.2,14.5-5.4,21.7
				c-3.1,7.2-7.4,13.8-12.9,19.7c-5.5,5.9-12.1,10.7-19.7,14.5c-7.6,3.8-16.1,5.8-25.4,6.2c-7.2,0.2-13.7-0.7-19.5-2.7
				c-5.8-2-10.6-4.9-14.5-8.7c-3.9-3.8-6.8-8.3-8.7-13.5c-1.9-5.2-2.7-10.8-2.4-16.7c0.2-4.9,1.2-10,3-15.2
				c1.8-5.2,4.3-10.2,7.6-14.9c3.2-4.7,7.2-9,11.8-12.9c4.6-3.9,9.9-7,15.8-9.3c-6.6-2.4-11.7-5.7-15.5-9.8
				c-3.7-4.1-6.3-8.7-7.6-13.8c-1.3-5-1.6-10.3-0.8-15.9c0.8-5.5,2.4-11,4.9-16.4c2.5-5.4,5.8-10.5,9.7-15.3c4-4.8,8.4-9,13.3-12.6
				c4.9-3.6,10.2-6.3,15.9-8.2C193.8,152.4,199.7,151.7,205.6,152.1z M188.7,253.6l-0.3,0.2c-3.9,0.6-7.3,2.3-10.4,5.1
				s-5.8,6.3-8,10.5c-2.3,4.1-4,8.7-5.4,13.6c-1.3,4.9-2.2,9.8-2.5,14.5c-0.2,3.7,0.1,7.3,1,10.6c0.9,3.4,2.2,6.3,4,8.8
				c1.8,2.5,4,4.6,6.6,6.1c2.6,1.5,5.7,2.3,9.2,2.3c5.5-0.4,10.5-2,14.9-4.8c4.4-2.7,8.2-6.1,11.3-10.1s5.6-8.3,7.4-13
				c1.8-4.7,2.8-9.3,3.1-13.8c0.1-4.1-0.3-8-1.2-11.7s-2.4-7-4.5-9.9c-2.1-2.9-4.8-5.1-8.1-6.7c-3.3-1.6-7.3-2.3-11.9-2.2
				C192.2,253.1,190.5,253.3,188.7,253.6z M202.6,165.1c-5.2,0.2-9.6,2.1-13.4,5.5c-3.8,3.5-6.8,7.8-9.1,12.9
				c-2.3,5.2-3.9,10.8-4.7,16.8c-0.8,6-0.8,11.7,0.1,17.1c0.9,5.3,2.6,9.9,5.2,13.6c2.6,3.7,6.1,5.9,10.5,6.4
				c5-0.4,9.7-2.3,13.8-5.4c4.2-3.2,7.8-7,10.9-11.5c3.1-4.4,5.5-9.3,7.2-14.4c1.8-5.2,2.7-10,3-14.5c0.3-8.1-1.6-14.7-5.8-19.6
				C216.1,167.1,210.2,164.8,202.6,165.1z"/>
			<path class="st1" d="M251.8,306.7c1.8,2.5,4,4.6,6.7,6.5c2.6,1.9,5.6,3.4,8.8,4.5c3.2,1.2,6.7,2,10.3,2.4c6,0.8,11.8,0.1,17.4-2
				c5.5-2.1,10.5-5.2,14.9-9.2c4.4-4.1,8-9,10.7-14.7c2.7-5.8,4.3-11.9,4.8-18.5c0.4-7.4-0.2-13.7-1.8-19.1
				c-1.6-5.4-4.2-9.7-7.7-12.9c-3.5-3.2-7.7-5.4-12.8-6.3c-5.1-1-10.9-0.8-17.4,0.7c-1.9,0.4-3.6,0.6-5.1,0.5
				c-1.5-0.1-2.9-0.6-4.1-1.5c-1.2-0.8-1.9-1.5-2.1-2.2c-0.2-0.7-0.2-1.4,0.1-2.1s0.7-1.3,1.4-2c0.7-0.7,1.4-1.4,2.1-2.3
				c2.6-3.2,5.1-6.1,7.3-8.8c2.3-2.7,4.4-5.2,6.5-7.7c7-8.3,12.4-14.8,16.2-19.4c3.8-4.6,6.5-8,8.2-10.2s2.6-3.5,2.8-3.9
				c0.2-0.4,0.2-0.6,0.1-0.6c-5.6,0.5-11.3,1.2-17,1.8s-11.7,1.1-17.7,1.3c-1.8,0.2-4,0.4-6.8,0.5c-2.8,0.1-5.7,0-8.6-0.2
				s-5.8-0.9-8.5-1.8c-2.7-0.9-4.8-2.4-6.3-4.4c-1.1-2-1.9-4.3-2.5-6.9c-0.5-2.6-0.5-6,0-10.2c0.2-1.3,0.5-2.4,0.9-3.3
				c0.4-0.9,0.9-1.3,1.4-1.2c0.7,0.2,1.6,0.7,2.7,1.5s2.7,1.3,4.5,1.5c1.9,0.4,4.6,0.6,8.3,0.6c3.7-0.1,7.8-0.2,12.4-0.5
				c4.6-0.3,9.5-0.6,14.7-0.9c5.2-0.3,10.3-0.6,15.3-0.9c5-0.3,9.6-0.4,13.9-0.3c4.3,0.1,7.8,0.4,10.7,0.9c4.3,0.9,7.3,2.6,9.1,5.1
				c1.8,2.5,2.6,5.5,2.6,8.9c0,5.3-1.1,10.3-3.2,15.2c-2.1,4.8-4.8,9.5-8,14.1c-3.2,4.6-6.7,9-10.5,13.3c-3.8,4.3-7.3,8.7-10.6,13.1
				c4.5,0.1,8.9,1.2,13.3,3.3c4.3,2.1,8.2,4.8,11.7,8.2c3.5,3.4,6.3,7.3,8.6,11.7c2.3,4.4,3.7,8.9,4.1,13.5
				c0.9,11.2-0.2,21.3-3.2,30.4c-3,9.1-7.7,16.8-14,23.2s-14.2,11.4-23.5,14.8c-9.4,3.5-20,5.2-31.7,5.2c-4.2,0-8.8-0.8-13.7-2.5
				c-5-1.6-9.7-4-14-6.9c-4.3-3-7.9-6.4-10.7-10.4c-2.8-4-4-8.2-3.5-12.9c0.1-0.8,0.2-1.6,0.4-2.5c0.2-0.9,0.5-1.8,0.9-2.8
				c0.3-0.5,0.9-1,1.7-1.5c0.8-0.4,1.7-0.7,2.6-0.7c0.9,0,1.6,0.2,2.2,0.7c0.6,0.4,0.9,1.2,0.9,2.3h0.2
				C248.7,301.4,250,304.3,251.8,306.7z"/>
		</g>
		<g>
			<path class="st2" d="M237.7,258.3l-7.7-8.7c-1-1.2-2.3-1.5-3.8-1c-0.1,0-0.2,0.1-0.3,0.2c-3,1.3-6,3.2-9,5.5
				c-3,2.4-6.1,5-9.1,8.1c-3.1,3-6.1,6.3-9,9.7c-2.9,3.5-5.7,6.9-8.3,10.3c-0.2,0.2-0.4,0.3-0.7,0.2c-0.2-0.1-0.2-0.3,0-0.5
				l7.7-18.3c0.8-2.1,0.4-3.9-1-5.4l-7.6-8.7c-1.2-1.2-2.5-1.5-4-1c-0.1,0-0.2,0.1-0.2,0.2c-3,1.3-6,3.2-9.2,5.6
				c-3.2,2.4-6.3,5.2-9.4,8.2c-3.1,3.1-6.1,6.4-9.1,10c-3,3.6-5.8,7.1-8.4,10.6c-0.1,0.2-0.2,0.3-0.4,0.2c-0.2-0.1-0.2-0.3-0.1-0.5
				l8.1-19.1c0.9-2,0.6-3.8-0.8-5.4l-7.7-8.7c-0.9-1-1.9-1.4-3.1-1.2c-1.2,0.2-2.1,0.9-2.6,2.1L98.3,354c-1.2,2.9-0.9,5.5,0.8,8.1
				l5.9,9.1c0.9,1.2,2,1.7,3.3,1.6c1.3-0.2,2.3-0.9,2.8-2.2l22.6-53c3.3-6.3,6.8-12.2,10.6-17.7c3.8-5.5,7.6-10.6,11.4-15.2
				c3.8-4.6,7.4-8.7,10.9-12.4c3.5-3.6,6.6-6.7,9.2-9.2c0.4-0.3,0.9-0.4,1.2-0.1c0.4,0.3,0.5,0.7,0.2,1.2L139.4,354
				c-0.5,1.3-0.8,2.7-0.7,4.1c0.1,1.4,0.5,2.7,1.3,4l6.1,9.1c0.8,1.2,1.8,1.7,3.2,1.6c1.4-0.2,2.3-0.9,2.9-2.2l22.4-53
				c3.3-6.3,6.8-12.2,10.6-17.7c3.8-5.5,7.6-10.6,11.4-15.2c3.8-4.6,7.5-8.7,11-12.4c3.5-3.6,6.6-6.7,9.2-9.2
				c0.3-0.3,0.7-0.4,1.2-0.1c0.4,0.3,0.5,0.7,0.3,1.2l-38,89.9c-1.2,2.9-0.9,5.5,0.8,8.1l6.1,9.1c0.8,1.2,1.8,1.7,3.1,1.6
				c1.3-0.2,2.3-0.9,2.8-2.2l45.3-106.7C239.4,261.8,239.1,260,237.7,258.3z"/>
			<path class="st2" d="M253.7,291.1c0.8,0.9,1.8,1.3,3,1.2c1.2-0.1,2.1-0.7,2.6-1.8l11.2-20.3c0.7-1.3,0.5-2.6-0.3-4l-8.2-9.2
				c-0.9-0.9-1.9-1.2-3-1.1c-1.2,0.2-2,0.9-2.6,2.1l-9.4,21.9c-0.5,1.2-0.4,2.4,0.5,3.5L253.7,291.1z"/>
			<path class="st2" d="M404.1,303.5l-28,28.3l10.9-25.5c0.9-2,0.6-3.8-0.8-5.6l-7.4-8.2c-0.9-1-1.9-1.4-3.2-1.2
				c-1.3,0.2-2.2,0.9-2.7,2.1l-3.6,8.4c-1.1-1.6-2.4-3.2-3.8-4.6c-2.3-2.3-4.7-4-7.1-4.9c-2.4-1-4.9-1-7.3-0.2
				c-2.5,0.9-4.9,2.8-7.3,5.7c-1.4,1.6-2.7,3.7-4,6.1l-26.1,26.6l33.1-77.7c0.4-0.9,0.5-1.8,0.3-2.8c-0.2-1-0.7-1.9-1.3-2.8
				l-7.6-8.6c-0.9-1-1.9-1.4-3.1-1.2c-1.2,0.2-2.1,0.9-2.6,2.1l-27.2,64.1l-26.5,27l33.1-77.7c0.4-0.9,0.5-1.8,0.3-2.8
				c-0.2-1-0.7-1.9-1.3-2.8l-7.6-8.6c-0.9-1-1.9-1.4-3.1-1.2c-1.2,0.2-2.1,0.9-2.6,2.1l-27.2,64.1l-27.8,28.3l10.9-25.5
				c0.8-2,0.4-3.8-1-5.6l-7.2-8.2c-0.9-1-2-1.4-3.3-1.2c-1.3,0.2-2.3,0.9-2.8,2.1l-19.4,45.5c-1.2,2.9-0.9,5.5,0.8,8.1l7.1,10.9
				c0.7,0.9,1.5,1.3,2.6,1.4c1,0.1,1.9-0.4,2.6-1.2l30.4-37.5l-8.2,19.4c-1.2,2.7-0.9,5.4,0.8,8.1l6.6,10c0.5,0.9,1.3,1.3,2.4,1.2
				c1-0.1,1.8-0.5,2.4-1.2l31.1-37.8l-8.3,19.7c-1.2,2.7-0.9,5.4,0.8,8.1l6.6,10c0.5,0.9,1.3,1.3,2.4,1.2c1-0.1,1.8-0.5,2.4-1.2
				l29-35.3l-3.5,7.6c-1.4,3.5-2.2,6.5-2.4,9.1s0,4.8,0.4,6.7c0.4,1.9,1.1,3.6,2,4.9c0.9,1.4,1.6,2.7,2.3,3.9l2,2.8
				c0.5,0.9,1.4,1.3,2.5,1.4c1.1,0.1,2-0.4,2.6-1.2l18.9-24.4l-2.3,5.4c-0.5,1.3-0.8,2.7-0.7,4.1c0.1,1.4,0.5,2.7,1.4,4l7.2,10.9
				c0.5,0.9,1.4,1.3,2.5,1.4c1.1,0.1,2-0.4,2.6-1.2l40.7-50.1L404.1,303.5z M364.3,313.5l-19.6,22.7l12.3-26.7
				c1.2-2.2,2.8-3.3,4.7-3.5c1.9-0.1,3.5,0.4,4.9,1.6L364.3,313.5z"/>
		</g>
		<g>
			<path class="st2" d="M202.7,371c0.4,0,0.8,0.1,1,0.3c0.2,0.2,0.4,0.5,0.4,0.9s-0.1,0.7-0.4,0.9c-0.2,0.2-0.6,0.3-1,0.3
				c-0.4,0-0.8-0.1-1-0.3c-0.2-0.2-0.4-0.5-0.4-0.9s0.1-0.7,0.4-0.9C202,371.1,202.3,371,202.7,371z"/>
			<path class="st2" d="M215.7,363.2c0.1,0,0.2,0,0.2,0.1c0.1,0.1,0.1,0.1,0.1,0.2l1.8,18.8c0,0.1,0,0.2-0.1,0.3
				c-0.1,0.1-0.2,0.1-0.3,0.1h-0.8c-0.3,0-0.5-0.1-0.7-0.2s-0.3-0.4-0.3-0.6l-0.2-2.7H214l-0.2,2.7c0,0.2-0.1,0.4-0.3,0.6
				c-0.2,0.2-0.4,0.2-0.7,0.2h-0.8c-0.2,0-0.3,0-0.3-0.1c-0.1-0.1-0.1-0.2-0.1-0.3l1.8-18.8c0-0.1,0-0.2,0.1-0.2
				c0.1-0.1,0.1-0.1,0.2-0.1H215.7z M214.1,377.4h1.1l-0.6-9.4L214.1,377.4z"/>
			<path class="st2" d="M232,380.1c0,0.9-0.3,1.6-0.8,2.1c-0.6,0.5-1.3,0.8-2.3,0.8c-0.5,0-0.9-0.1-1.3-0.2c-0.4-0.1-0.7-0.3-1-0.6
				c-0.3-0.3-0.5-0.5-0.6-0.9c-0.2-0.3-0.2-0.7-0.2-1.2v-16.6c0-0.1,0-0.2,0.1-0.3c0.1-0.1,0.1-0.1,0.3-0.1h0.9
				c0.3,0,0.5,0.1,0.7,0.2c0.2,0.2,0.3,0.4,0.3,0.6v16.1c0,0.3,0.1,0.5,0.2,0.7s0.4,0.3,0.7,0.3c0.3,0,0.6-0.1,0.7-0.3
				c0.2-0.2,0.2-0.4,0.2-0.7V364c0-0.3,0.1-0.5,0.3-0.6s0.4-0.2,0.7-0.2h0.9c0.1,0,0.2,0,0.3,0.1c0.1,0.1,0.1,0.2,0.1,0.3L232,380.1
				L232,380.1z"/>
			<path class="st2" d="M245.4,363.2c0.1,0,0.2,0,0.3,0.1c0.1,0.1,0.1,0.1,0.1,0.3v0.6c0,0.3-0.1,0.5-0.2,0.7
				c-0.2,0.2-0.4,0.3-0.6,0.3h-1v17.1c0,0.2-0.1,0.3-0.2,0.4c-0.1,0.1-0.3,0.2-0.4,0.2h-1c-0.2,0-0.3-0.1-0.4-0.2
				c-0.1-0.1-0.2-0.3-0.2-0.4V365h-1c-0.3,0-0.5-0.1-0.6-0.3c-0.2-0.2-0.2-0.4-0.2-0.7v-0.6c0-0.1,0-0.2,0.1-0.3
				c0.1-0.1,0.2-0.1,0.3-0.1H245.4z"/>
			<path class="st2" d="M253.1,365.8c0-0.9,0.3-1.6,0.8-2.1c0.6-0.5,1.3-0.8,2.3-0.8c0.5,0,0.9,0.1,1.3,0.2c0.4,0.1,0.7,0.3,1,0.6
				c0.3,0.3,0.5,0.5,0.6,0.9c0.2,0.3,0.2,0.7,0.2,1.2v14.4c0,0.9-0.3,1.6-0.8,2.1c-0.6,0.5-1.3,0.8-2.3,0.8c-0.5,0-0.9-0.1-1.3-0.2
				c-0.4-0.1-0.7-0.3-1-0.6s-0.5-0.5-0.6-0.9c-0.2-0.3-0.2-0.7-0.2-1.2V365.8z M257.2,365.8c0-0.3-0.1-0.5-0.2-0.7
				c-0.2-0.2-0.4-0.3-0.7-0.3c-0.3,0-0.6,0.1-0.7,0.3c-0.2,0.2-0.2,0.4-0.2,0.7v14.4c0,0.3,0.1,0.5,0.2,0.7s0.4,0.3,0.7,0.3
				c0.3,0,0.6-0.1,0.7-0.3c0.2-0.2,0.2-0.4,0.2-0.7V365.8z"/>
			<path class="st2" d="M270.9,363.2c0.5,0,0.9,0.1,1.3,0.2c0.4,0.1,0.7,0.3,1,0.6c0.3,0.3,0.5,0.5,0.6,0.9c0.2,0.3,0.2,0.7,0.2,1.2
				v4.8c0,0.5-0.1,0.9-0.3,1.2c-0.2,0.3-0.5,0.6-0.8,0.7c0.3,0.2,0.6,0.4,0.8,0.7c0.2,0.3,0.3,0.7,0.3,1.2v5.2
				c0,0.9-0.3,1.6-0.9,2.1c-0.6,0.5-1.3,0.8-2.3,0.8H268c-0.1,0-0.2,0-0.3-0.1c-0.1-0.1-0.1-0.2-0.1-0.3v-18.8c0-0.1,0-0.2,0.1-0.3
				c0.1-0.1,0.1-0.1,0.3-0.1H270.9z M270.9,371.8c0.3,0,0.6-0.1,0.7-0.3c0.2-0.2,0.2-0.4,0.2-0.7V366c0-0.3-0.1-0.5-0.2-0.7
				c-0.2-0.2-0.4-0.3-0.7-0.3h-1v6.8L270.9,371.8L270.9,371.8z M269.9,373.7v7.2h1c0.3,0,0.6-0.1,0.7-0.3c0.2-0.2,0.2-0.4,0.2-0.7
				v-5.2c0-0.3-0.1-0.5-0.2-0.7c-0.2-0.2-0.4-0.3-0.7-0.3L269.9,373.7L269.9,373.7z"/>
			<path class="st2" d="M282.3,365.8c0-0.9,0.3-1.6,0.8-2.1c0.6-0.5,1.3-0.8,2.3-0.8c0.5,0,0.9,0.1,1.3,0.2c0.4,0.1,0.7,0.3,1,0.6
				c0.3,0.3,0.5,0.5,0.6,0.9c0.2,0.3,0.2,0.7,0.2,1.2v14.4c0,0.9-0.3,1.6-0.8,2.1c-0.6,0.5-1.3,0.8-2.3,0.8c-0.5,0-0.9-0.1-1.3-0.2
				s-0.7-0.3-1-0.6s-0.5-0.5-0.6-0.9c-0.2-0.3-0.2-0.7-0.2-1.2V365.8z M286.5,365.8c0-0.3-0.1-0.5-0.2-0.7c-0.2-0.2-0.4-0.3-0.7-0.3
				c-0.3,0-0.6,0.1-0.7,0.3c-0.2,0.2-0.2,0.4-0.2,0.7v14.4c0,0.3,0.1,0.5,0.2,0.7c0.2,0.2,0.4,0.3,0.7,0.3c0.3,0,0.6-0.1,0.7-0.3
				c0.2-0.2,0.2-0.4,0.2-0.7V365.8z"/>
			<path class="st2" d="M303.3,380.1c0,0.9-0.3,1.6-0.8,2.1c-0.6,0.5-1.3,0.8-2.3,0.8c-0.5,0-0.9-0.1-1.3-0.2
				c-0.4-0.1-0.7-0.3-1-0.6c-0.3-0.3-0.5-0.5-0.6-0.9c-0.2-0.3-0.2-0.7-0.2-1.2v-16.6c0-0.1,0-0.2,0.1-0.3c0.1-0.1,0.1-0.1,0.3-0.1
				h0.9c0.3,0,0.5,0.1,0.7,0.2c0.2,0.2,0.3,0.4,0.3,0.6v16.1c0,0.3,0.1,0.5,0.2,0.7c0.2,0.2,0.4,0.3,0.7,0.3c0.3,0,0.6-0.1,0.7-0.3
				s0.2-0.4,0.2-0.7V364c0-0.3,0.1-0.5,0.3-0.6c0.2-0.2,0.4-0.2,0.7-0.2h0.9c0.1,0,0.2,0,0.3,0.1c0.1,0.1,0.1,0.2,0.1,0.3
				L303.3,380.1L303.3,380.1z"/>
			<path class="st2" d="M316.7,363.2c0.1,0,0.2,0,0.3,0.1s0.1,0.1,0.1,0.3v0.6c0,0.3-0.1,0.5-0.2,0.7c-0.2,0.2-0.4,0.3-0.6,0.3h-1
				v17.1c0,0.2-0.1,0.3-0.2,0.4c-0.1,0.1-0.3,0.2-0.4,0.2h-1c-0.2,0-0.3-0.1-0.4-0.2c-0.1-0.1-0.2-0.3-0.2-0.4V365h-1
				c-0.3,0-0.5-0.1-0.6-0.3c-0.2-0.2-0.2-0.4-0.2-0.7v-0.6c0-0.1,0-0.2,0.1-0.3c0.1-0.1,0.2-0.1,0.3-0.1H316.7z"/>
			<path class="st2" d="M324.9,364c0-0.3,0.1-0.5,0.3-0.6s0.4-0.2,0.7-0.2h0.9c0.1,0,0.2,0,0.3,0.1c0.1,0.1,0.1,0.2,0.1,0.3v18.6
				c0,0.2-0.1,0.3-0.2,0.4c-0.1,0.1-0.3,0.2-0.4,0.2h-1c-0.2,0-0.3-0.1-0.4-0.2c-0.1-0.1-0.2-0.3-0.2-0.4L324.9,364L324.9,364z"/>
			<path class="st2" d="M338,384.5c-0.3,0-0.6-0.1-0.7-0.3c-0.2-0.2-0.2-0.4-0.2-0.7v-0.8c-0.5-0.2-0.9-0.5-1.2-1
				c-0.3-0.4-0.4-1-0.4-1.6v-14.4c0-0.9,0.3-1.6,0.8-2.1c0.6-0.5,1.3-0.8,2.3-0.8c0.5,0,0.9,0.1,1.3,0.2c0.4,0.1,0.7,0.3,1,0.6
				c0.3,0.3,0.5,0.5,0.6,0.9c0.2,0.3,0.2,0.7,0.2,1.2v14.4c0,0.8-0.2,1.4-0.7,1.9c-0.4,0.5-1.1,0.8-1.9,0.9v1.2c0,0.1,0,0.2-0.1,0.3
				s-0.1,0.1-0.3,0.1L338,384.5L338,384.5z M339.5,365.8c0-0.3-0.1-0.5-0.2-0.7c-0.2-0.2-0.4-0.3-0.7-0.3c-0.3,0-0.6,0.1-0.7,0.3
				c-0.2,0.2-0.2,0.4-0.2,0.7V380h0.7c0.3,0,0.5,0.1,0.7,0.3c0.2,0.2,0.3,0.4,0.3,0.6c0.2-0.2,0.3-0.4,0.3-0.8L339.5,365.8
				L339.5,365.8z"/>
			<path class="st2" d="M356.4,380.1c0,0.9-0.3,1.6-0.8,2.1c-0.6,0.5-1.3,0.8-2.3,0.8c-0.5,0-0.9-0.1-1.3-0.2
				c-0.4-0.1-0.7-0.3-1-0.6c-0.3-0.3-0.5-0.5-0.6-0.9c-0.2-0.3-0.2-0.7-0.2-1.2v-16.6c0-0.1,0-0.2,0.1-0.3c0.1-0.1,0.1-0.1,0.3-0.1
				h0.9c0.3,0,0.5,0.1,0.7,0.2c0.2,0.2,0.3,0.4,0.3,0.6v16.1c0,0.3,0.1,0.5,0.2,0.7c0.2,0.2,0.4,0.3,0.7,0.3c0.3,0,0.6-0.1,0.7-0.3
				c0.2-0.2,0.2-0.4,0.2-0.7V364c0-0.3,0.1-0.5,0.3-0.6c0.2-0.2,0.4-0.2,0.7-0.2h0.9c0.1,0,0.2,0,0.3,0.1c0.1,0.1,0.1,0.2,0.1,0.3
				L356.4,380.1L356.4,380.1z"/>
			<path class="st2" d="M369.4,363.2c0.1,0,0.2,0,0.3,0.1s0.1,0.1,0.1,0.3v0.6c0,0.3-0.1,0.5-0.2,0.7c-0.2,0.2-0.4,0.3-0.6,0.3h-2
				v7.1h2.2c0.1,0,0.2,0,0.3,0.1c0.1,0.1,0.1,0.1,0.1,0.3v0.6c0,0.3-0.1,0.5-0.2,0.7c-0.2,0.2-0.4,0.3-0.6,0.3h-1.7v6.9h2
				c0.3,0,0.5,0.1,0.6,0.3s0.2,0.4,0.2,0.7v0.6c0,0.1,0,0.2-0.1,0.3c-0.1,0.1-0.2,0.1-0.3,0.1H365c-0.1,0-0.2,0-0.3-0.1
				c-0.1-0.1-0.1-0.2-0.1-0.3v-18.8c0-0.1,0-0.2,0.1-0.3c0.1-0.1,0.1-0.1,0.3-0.1H369.4z"/>
			<path class="st2" d="M378.9,369.7c0.5,0,0.9,0.2,1.2,0.5c0.3,0.3,0.5,0.7,0.5,1.2c0,0.5-0.2,0.9-0.5,1.2
				c-0.3,0.3-0.7,0.5-1.2,0.5s-0.9-0.2-1.2-0.5c-0.3-0.3-0.5-0.7-0.5-1.2c0-0.5,0.2-0.9,0.5-1.2C378,369.8,378.4,369.7,378.9,369.7z
				"/>
		</g>
		<g id="Rectángulo_1_copia_4">
			<g>
				<path class="st3" d="M249.8,119.1h6.4V89.5h-6.4V119.1z M284,118.9l3.4,0.7l4.9-22.7l-3.4-0.7L284,118.9z M269.3,111.1l2,0.2
					l2-17.9l-2-0.2L269.3,111.1z M302.1,118.9l1.9,0.6l5.7-17.1l-1.9-0.6L302.1,118.9z M357,129.4l-14.7,18l2.7,2.2l14.7-18
					L357,129.4z M342.7,118.8l-9.9,15l1.6,1.1l9.9-15L342.7,118.8z M371.3,143.1l-12.9,12.6l1.4,1.4l12.9-12.6L371.3,143.1z
					 M402.8,189.4l-21.3,9.2l1.4,3.2l21.3-9.2L402.8,189.4z M395.1,173.4l-15.8,8.7l1,1.7l15.8-8.7L395.1,173.4z M392.5,215.3
					l17.2-5.2l-0.6-1.9l-17.2,5.2L392.5,215.3z M393.8,265.7L417,267l0.2-3.5l-23.2-1.3L393.8,265.7z M399.5,246.5l0.1,2l18-0.7
					l-0.1-2L399.5,246.5z M396.4,282.1l17.7,3.1l0.3-1.9l-17.7-3.1L396.4,282.1z M311.7,132l5.7,3l13.6-26.3l-5.7-3L311.7,132z
					 M385.1,154.1l-23.9,17.5l3.8,5.2l23.9-17.5L385.1,154.1z M416.8,223.8l-29.1,5.6l1.2,6.3l29.1-5.6L416.8,223.8z M213.8,96.9
					l4.9,22.7l3.4-0.7l-4.9-22.7L213.8,96.9z M232.7,93.4l2,17.9l2-0.2l-2-17.9L232.7,93.4z M196.3,102.4l5.7,17.1l1.9-0.6
					l-5.7-17.1L196.3,102.4z M146.3,131.6l14.7,18l2.7-2.2l-14.7-18L146.3,131.6z M161.7,119.9l9.9,15l1.6-1.1l-9.9-15L161.7,119.9z
					 M133.3,144.5l12.9,12.6l1.4-1.4l-12.9-12.6L133.3,144.5z M101.8,192.6l21.3,9.2l1.4-3.2l-21.3-9.2L101.8,192.6z M110,175.1
					l15.8,8.7l1-1.7l-15.8-8.7L110,175.1z M114,213.4l-17.2-5.2l-0.6,1.9l17.2,5.2L114,213.4z M88.8,263.6L89,267l23.2-1.3l-0.2-3.5
					L88.8,263.6z M106.5,246.5l-18-0.7l-0.1,2l18,0.7L106.5,246.5z M91.5,283.2l0.3,1.9l17.7-3.1l-0.3-1.9L91.5,283.2z M175,108.7
					l13.6,26.3l5.7-3l-13.6-26.3L175,108.7z M117.1,159.3l23.9,17.5l3.8-5.2l-23.9-17.5L117.1,159.3z M88,230.1l29.1,5.6l1.2-6.3
					l-29.1-5.6L88,230.1z"/>
			</g>
		</g>
	</g>
</g>
</svg>
