<svg xmlns="http://www.w3.org/2000/svg" viewBox="0 0 612 528.72"><defs><style>.cls-1{isolation:isolate;}.cls-2{fill:#df0024;}.cls-3{fill-rule:evenodd;}</style></defs><title>m83</title><g id="Rect치ngulo_1_copia_4" data-name="Rect치ngulo 1 copia 4" class="cls-1"><path class="cls-2" d="M260.13,169.61a44.5,44.5,0,0,1,17.37,2.56,35.4,35.4,0,0,1,12.66,7.93,31.1,31.1,0,0,1,7.44,12,38,38,0,0,1,1.92,14.82,56.17,56.17,0,0,1-2.88,14A61,61,0,0,1,280,246.53a56.69,56.69,0,0,1-13.46,9.13A36.31,36.31,0,0,1,278.62,261a30.07,30.07,0,0,1,8.17,8.33A32,32,0,0,1,291.2,280a47.37,47.37,0,0,1,1,12.34A62.62,62.62,0,0,1,287,313.51a66.09,66.09,0,0,1-31.71,33.25,59.62,59.62,0,0,1-24.74,6,52.26,52.26,0,0,1-19-2.64,38,38,0,0,1-14.09-8.5,34.83,34.83,0,0,1-8.49-13.14,40.25,40.25,0,0,1-2.32-16.26,52.54,52.54,0,0,1,3-14.83A61,61,0,0,1,197,282.9a63.64,63.64,0,0,1,11.45-12.58,53.78,53.78,0,0,1,15.37-9.05q-9.6-3.52-15.05-9.54a31.55,31.55,0,0,1-7.37-13.38,39.3,39.3,0,0,1-.8-15.46,55.35,55.35,0,0,1,4.81-15.95,71,71,0,0,1,9.45-14.9,70.08,70.08,0,0,1,12.89-12.26,56.78,56.78,0,0,1,15.45-8A42.72,42.72,0,0,1,260.13,169.61Zm-16.42,98.71-.33.16a18.53,18.53,0,0,0-10.11,5,39.73,39.73,0,0,0-7.79,10.17,59,59,0,0,0-5.22,13.22,74.36,74.36,0,0,0-2.41,14.1,32.85,32.85,0,0,0,1,10.34,26.55,26.55,0,0,0,3.86,8.57,19.89,19.89,0,0,0,6.42,5.93,17.52,17.52,0,0,0,9,2.25,31.71,31.71,0,0,0,14.46-4.65,42.82,42.82,0,0,0,11-9.78,47.88,47.88,0,0,0,7.23-12.66,43.31,43.31,0,0,0,3-13.46,41.77,41.77,0,0,0-1.21-11.37,27.45,27.45,0,0,0-4.41-9.62,20.8,20.8,0,0,0-7.87-6.49,25,25,0,0,0-11.57-2.16A27,27,0,0,0,243.71,268.32Zm13.54-86a20.07,20.07,0,0,0-13.06,5.36,37.68,37.68,0,0,0-8.89,12.58,59.83,59.83,0,0,0-4.56,16.35,55.35,55.35,0,0,0,.08,16.58,32.11,32.11,0,0,0,5.05,13.23A14,14,0,0,0,246,252.61a25.36,25.36,0,0,0,13.46-5.28,49,49,0,0,0,10.57-11.14,57.06,57.06,0,0,0,7-14,52,52,0,0,0,2.89-14.1q.48-11.87-5.61-19.07T257.25,182.27Z"/><path class="cls-2" d="M305.05,320a28.26,28.26,0,0,0,6.48,6.33,35,35,0,0,0,8.57,4.4,46.12,46.12,0,0,0,10,2.33,34.78,34.78,0,0,0,16.9-1.92,43.85,43.85,0,0,0,14.49-9,46.52,46.52,0,0,0,10.41-14.34,49,49,0,0,0,4.64-18,53,53,0,0,0-1.76-18.59,28.15,28.15,0,0,0-7.44-12.58,24.81,24.81,0,0,0-12.5-6.17,41.73,41.73,0,0,0-16.89.65,17.11,17.11,0,0,1-5,.48,7.56,7.56,0,0,1-4-1.45,4.46,4.46,0,0,1-2.08-2.16,2.81,2.81,0,0,1,.08-2,6.12,6.12,0,0,1,1.36-1.93c.64-.64,1.33-1.38,2.08-2.24q3.84-4.65,7.13-8.57t6.32-7.45q10.25-12.18,15.78-18.91t8-9.94a35.27,35.27,0,0,0,2.72-3.76c.16-.38.18-.56.08-.56q-8.18.79-16.58,1.76t-17.21,1.28q-2.56.33-6.65.48a63,63,0,0,1-8.41-.24,34.81,34.81,0,0,1-8.24-1.76,13,13,0,0,1-6.17-4.25,23.61,23.61,0,0,1-2.4-6.73,30.31,30.31,0,0,1,0-9.94,13.3,13.3,0,0,1,.88-3.2c.37-.85.82-1.23,1.36-1.12a12,12,0,0,1,2.64,1.44,9.89,9.89,0,0,0,4.41,1.44,35,35,0,0,0,8.08.56q5.37-.08,12.1-.48t14.33-.88q7.61-.48,14.89-.88t13.53-.32a60.56,60.56,0,0,1,10.41.88q6.26,1.29,8.81,5a14.76,14.76,0,0,1,2.56,8.65A36,36,0,0,1,395.69,201a81.29,81.29,0,0,1-7.77,13.71,150.71,150.71,0,0,1-10.17,13q-5.52,6.33-10.32,12.74a31.14,31.14,0,0,1,12.89,3.2,42.42,42.42,0,0,1,11.37,8A46.07,46.07,0,0,1,400.1,263a35.35,35.35,0,0,1,4,13.14q1.27,16.35-3.12,29.57a57.84,57.84,0,0,1-13.62,22.59,61.16,61.16,0,0,1-22.9,14.42,88.53,88.53,0,0,1-30.83,5.05,43.08,43.08,0,0,1-13.37-2.4,54,54,0,0,1-13.61-6.73,40.76,40.76,0,0,1-10.41-10.1,18.06,18.06,0,0,1-3.44-12.5c.1-.74.24-1.54.4-2.4a12.46,12.46,0,0,1,.88-2.73,4.23,4.23,0,0,1,1.68-1.44,5.29,5.29,0,0,1,2.48-.64,3.61,3.61,0,0,1,2.16.64,2.6,2.6,0,0,1,.88,2.25h.16A20.93,20.93,0,0,0,305.05,320Z"/><path d="M291.36,272.92l-7.53-8.49a3,3,0,0,0-3.68-1,.43.43,0,0,0-.32.16A42.26,42.26,0,0,0,271.1,269a108.31,108.31,0,0,0-8.88,7.85q-4.49,4.41-8.73,9.45t-8.08,10a.54.54,0,0,1-.64.16q-.33-.17,0-.48l7.52-17.79a4.78,4.78,0,0,0-1-5.28L244,264.43a3.36,3.36,0,0,0-3.84-1c-.11,0-.17,0-.17.16a46,46,0,0,0-9,5.44,88.88,88.88,0,0,0-9.13,8q-4.49,4.49-8.8,9.7t-8.17,10.33c-.1.21-.24.27-.4.16s-.18-.27-.08-.48l7.85-18.59a4.64,4.64,0,0,0-.8-5.28l-7.53-8.49a3.29,3.29,0,0,0-3-1.2,3.18,3.18,0,0,0-2.56,2L155.75,366a7.73,7.73,0,0,0,.8,7.85l5.77,8.81a3.31,3.31,0,0,0,5.92-.64l21.93-51.58a176.24,176.24,0,0,1,10.33-17.22q5.52-8.08,11.05-14.82t10.64-12q5.13-5.28,9-9a.94.94,0,0,1,1.2-.08.93.93,0,0,1,.24,1.21L195.78,366a8.48,8.48,0,0,0-.64,4,8.09,8.09,0,0,0,1.28,3.84l5.92,8.81a3,3,0,0,0,3.12,1.53,3.31,3.31,0,0,0,2.81-2.17L230,330.43a172.38,172.38,0,0,1,10.33-17.22q5.52-8.08,11.12-14.82t10.73-12q5.11-5.28,9-9a.83.83,0,0,1,1.12-.08.88.88,0,0,1,.32,1.21l-37,87.46a7.7,7.7,0,0,0,.8,7.85l5.93,8.81a3,3,0,0,0,3,1.53,3.27,3.27,0,0,0,2.72-2.17l44-103.81A4.64,4.64,0,0,0,291.36,272.92Z"/><path d="M306.88,304.8a3.24,3.24,0,0,0,2.89,1.12,3,3,0,0,0,2.56-1.76l10.88-19.71a3.59,3.59,0,0,0-.32-3.84l-8-9a3.32,3.32,0,0,0-3-1,3.12,3.12,0,0,0-2.48,2l-9.13,21.3a3,3,0,0,0,.48,3.37Z"/><path d="M453.21,316.81,426,344.37l10.57-24.83a4.94,4.94,0,0,0-.8-5.45l-7.21-8a3.19,3.19,0,0,0-3.12-1.12,3.39,3.39,0,0,0-2.64,2.08l-3.52,8.17a29.1,29.1,0,0,0-3.69-4.48,21.11,21.11,0,0,0-6.88-4.81,9.68,9.68,0,0,0-7.12-.16,17.09,17.09,0,0,0-7.13,5.53,37,37,0,0,0-3.9,5.92l-25.39,25.88,32.18-75.62a4,4,0,0,0,.32-2.72,7.13,7.13,0,0,0-1.28-2.72L389,253.69a3.29,3.29,0,0,0-3-1.2,3.16,3.16,0,0,0-2.56,2l-26.47,62.36-25.72,26.23,32.18-75.62a4,4,0,0,0,.32-2.72,7.13,7.13,0,0,0-1.28-2.72l-7.37-8.34a3.29,3.29,0,0,0-3-1.2,3.16,3.16,0,0,0-2.56,2L323,316.87l-27,27.5,10.56-24.83a5.16,5.16,0,0,0-1-5.45l-7-8a3.29,3.29,0,0,0-3.2-1.12,3.44,3.44,0,0,0-2.72,2.08l-18.9,44.22a7.73,7.73,0,0,0,.8,7.85l6.89,10.57a3.23,3.23,0,0,0,2.48,1.36,2.78,2.78,0,0,0,2.48-1.2L316,333.38l-8,18.84a7.78,7.78,0,0,0,.8,7.85l6.41,9.77a2.42,2.42,0,0,0,2.32,1.2,2.88,2.88,0,0,0,2.32-1.2l30.22-36.77-8.13,19.15a7.78,7.78,0,0,0,.8,7.85l6.41,9.77a2.42,2.42,0,0,0,2.32,1.2,2.88,2.88,0,0,0,2.32-1.2L382,335.51l-3.41,7.42a29.38,29.38,0,0,0-2.32,8.81,22.86,22.86,0,0,0,.4,6.48A15.22,15.22,0,0,0,378.6,363c.86,1.34,1.6,2.59,2.24,3.76l1.92,2.73a3.05,3.05,0,0,0,5,.16L406.14,346l-2.24,5.29a9.14,9.14,0,0,0-.72,4,6.82,6.82,0,0,0,1.36,3.85l7,10.57a3,3,0,0,0,5,.16l39.55-48.7Zm-38.75,9.77-19,22.11,12-25.95c1.17-2.13,2.69-3.26,4.56-3.36a6.17,6.17,0,0,1,4.73,1.6Z"/><path d="M257.33,382.46a1.46,1.46,0,0,1,1,.31,1.1,1.1,0,0,1,.36.88,1.12,1.12,0,0,1-.36.88,1.42,1.42,0,0,1-1,.33,1.38,1.38,0,0,1-1-.33,1.14,1.14,0,0,1-.35-.88,1.13,1.13,0,0,1,.35-.88A1.42,1.42,0,0,1,257.33,382.46Z"/><path d="M269.92,374.9a.29.29,0,0,1,.22.1.4.4,0,0,1,.1.23L272,393.5a.38.38,0,0,1-.09.28.42.42,0,0,1-.33.12h-.79a1,1,0,0,1-.67-.23.86.86,0,0,1-.29-.57l-.16-2.59h-1.34l-.16,2.59a.83.83,0,0,1-.3.57,1,1,0,0,1-.67.23h-.79a.42.42,0,0,1-.33-.12.37.37,0,0,1-.08-.28l1.77-18.27a.46.46,0,0,1,.09-.23.31.31,0,0,1,.23-.1Zm-1.47,13.8h1.11l-.56-9.16Z"/><path d="M285.81,391.39a2.61,2.61,0,0,1-.81,2,3.22,3.22,0,0,1-2.27.74,3.91,3.91,0,0,1-1.28-.19,2.9,2.9,0,0,1-1-.56,2.5,2.5,0,0,1-.63-.87,3,3,0,0,1-.21-1.15V375.24a.35.35,0,0,1,.08-.24.3.3,0,0,1,.24-.1h.9a1,1,0,0,1,.67.23.73.73,0,0,1,.26.6v15.66a1,1,0,0,0,.23.7.86.86,0,0,0,.71.27.88.88,0,0,0,.7-.27,1,1,0,0,0,.23-.7V375.73a.73.73,0,0,1,.26-.6,1,1,0,0,1,.67-.23h.9a.3.3,0,0,1,.24.1.35.35,0,0,1,.08.24Z"/><path d="M298.86,374.9a.41.41,0,0,1,.25.08.33.33,0,0,1,.09.25v.54a1,1,0,0,1-.22.68.76.76,0,0,1-.6.26h-1v16.61a.58.58,0,0,1-.16.42.57.57,0,0,1-.41.16h-1a.56.56,0,0,1-.41-.16.55.55,0,0,1-.17-.42V376.71h-1a.74.74,0,0,1-.59-.26,1,1,0,0,1-.23-.68v-.54a.3.3,0,0,1,.1-.25.36.36,0,0,1,.24-.08Z"/><path d="M306.32,377.42a2.61,2.61,0,0,1,.81-2,3.23,3.23,0,0,1,2.28-.74,3.87,3.87,0,0,1,1.26.19,2.7,2.7,0,0,1,1,.56,2.5,2.5,0,0,1,.63.87,3,3,0,0,1,.22,1.15v14a2.61,2.61,0,0,1-.82,2,3.22,3.22,0,0,1-2.27.74,3.91,3.91,0,0,1-1.28-.19,2.9,2.9,0,0,1-1-.56,2.5,2.5,0,0,1-.63-.87,3,3,0,0,1-.21-1.15Zm4,0a1,1,0,0,0-.23-.7,1,1,0,0,0-1.4,0,1,1,0,0,0-.24.7v14a1,1,0,0,0,.23.7.86.86,0,0,0,.71.27.88.88,0,0,0,.7-.27,1,1,0,0,0,.23-.7Z"/><path d="M323.63,374.9a3.87,3.87,0,0,1,1.26.2,3,3,0,0,1,1,.55,2.53,2.53,0,0,1,.62.87,2.81,2.81,0,0,1,.22,1.15v4.66a2.14,2.14,0,0,1-.28,1.16.72.72,0,1,0,0,1.44,2,2,0,0,1,.28,1.13v5.08a2.55,2.55,0,0,1-.84,2,3.23,3.23,0,0,1-2.25.74h-2.77a.3.3,0,0,1-.24-.09.41.41,0,0,1-.08-.24V375.24a.41.41,0,0,1,.08-.24.3.3,0,0,1,.24-.1Zm0,8.39a.88.88,0,0,0,.71-.27,1,1,0,0,0,.22-.69v-4.66a1,1,0,0,0-.22-.7.91.91,0,0,0-.71-.26h-.93v6.58Zm-.93,1.81v7h.93a.89.89,0,0,0,.72-.27,1.11,1.11,0,0,0,.21-.69v-5.08a1,1,0,0,0-.22-.69.88.88,0,0,0-.71-.27Z"/><path d="M334.76,377.42a2.61,2.61,0,0,1,.82-2,3.22,3.22,0,0,1,2.27-.74,3.89,3.89,0,0,1,1.27.19,2.7,2.7,0,0,1,1,.56,2.5,2.5,0,0,1,.63.87,3,3,0,0,1,.21,1.15v14a2.61,2.61,0,0,1-.81,2,3.23,3.23,0,0,1-2.28.74,3.89,3.89,0,0,1-1.27-.19,2.9,2.9,0,0,1-1-.56,2.5,2.5,0,0,1-.63-.87,3,3,0,0,1-.22-1.15Zm4,0a1,1,0,0,0-.23-.7.86.86,0,0,0-.71-.27.88.88,0,0,0-.7.27,1,1,0,0,0-.23.7v14a1,1,0,0,0,.23.7,1,1,0,0,0,1.4,0,1,1,0,0,0,.24-.7Z"/><path d="M355.17,391.39a2.61,2.61,0,0,1-.81,2,3.24,3.24,0,0,1-2.28.74,3.85,3.85,0,0,1-1.27-.19,3,3,0,0,1-1-.56,2.35,2.35,0,0,1-.62-.87,2.78,2.78,0,0,1-.22-1.15V375.24a.41.41,0,0,1,.08-.24.3.3,0,0,1,.24-.1h.9a1,1,0,0,1,.68.23.76.76,0,0,1,.26.6v15.66a1,1,0,0,0,.22.7,1.06,1.06,0,0,0,1.41,0,1,1,0,0,0,.23-.7V375.73a.76.76,0,0,1,.26-.6,1,1,0,0,1,.68-.23h.9a.31.31,0,0,1,.24.1.41.41,0,0,1,.08.24Z"/><path d="M368.22,374.9a.36.36,0,0,1,.24.08.34.34,0,0,1,.1.25v.54a1,1,0,0,1-.23.68.76.76,0,0,1-.59.26h-1v16.61a.59.59,0,0,1-.17.42.56.56,0,0,1-.41.16h-1a.56.56,0,0,1-.41-.16.59.59,0,0,1-.17-.42V376.71h-1a.76.76,0,0,1-.59-.26,1,1,0,0,1-.23-.68v-.54a.34.34,0,0,1,.1-.25.36.36,0,0,1,.24-.08Z"/><path d="M376.15,375.73a.76.76,0,0,1,.26-.6,1,1,0,0,1,.67-.23H378a.33.33,0,0,1,.24.1.41.41,0,0,1,.08.24v18.08a.59.59,0,0,1-.17.42.56.56,0,0,1-.41.16h-1a.56.56,0,0,1-.41-.16.59.59,0,0,1-.17-.42Z"/><path d="M388.86,395.61a.91.91,0,0,1-.7-.26,1,1,0,0,1-.23-.69v-.77a2.58,2.58,0,0,1-1.17-1,2.81,2.81,0,0,1-.41-1.54v-14a2.58,2.58,0,0,1,.82-2,3.22,3.22,0,0,1,2.27-.74,3.94,3.94,0,0,1,1.27.19,2.79,2.79,0,0,1,1,.56,2.5,2.5,0,0,1,.63.87,3,3,0,0,1,.21,1.15v14a2.64,2.64,0,0,1-.64,1.85,2.8,2.8,0,0,1-1.8.87v1.16a.41.41,0,0,1-.08.25.33.33,0,0,1-.25.09Zm1.52-18.19a1,1,0,0,0-.23-.7,1.06,1.06,0,0,0-1.41,0,1,1,0,0,0-.23.7V391.3h.64a.89.89,0,0,1,.66.24,1,1,0,0,1,.28.61.94.94,0,0,0,.29-.76Z"/><path d="M406.76,391.39a2.58,2.58,0,0,1-.82,2,3.22,3.22,0,0,1-2.27.74,3.85,3.85,0,0,1-1.27-.19,3,3,0,0,1-1-.56,2.5,2.5,0,0,1-.63-.87,3,3,0,0,1-.21-1.15V375.24a.35.35,0,0,1,.08-.24.3.3,0,0,1,.24-.1h.9a1,1,0,0,1,.68.23.76.76,0,0,1,.25.6v15.66a1,1,0,0,0,.23.7,1.06,1.06,0,0,0,1.41,0,1,1,0,0,0,.23-.7V375.73a.76.76,0,0,1,.26-.6,1,1,0,0,1,.67-.23h.9a.34.34,0,0,1,.25.1.41.41,0,0,1,.08.24Z"/><path d="M419.42,374.9a.36.36,0,0,1,.24.08.3.3,0,0,1,.1.25v.54a1,1,0,0,1-.23.68.74.74,0,0,1-.59.26h-2v6.91h2.14a.32.32,0,0,1,.24.08.27.27,0,0,1,.1.24v.54a1,1,0,0,1-.23.68.76.76,0,0,1-.59.26H417v6.68h2a.74.74,0,0,1,.59.26,1,1,0,0,1,.23.68v.54a.27.27,0,0,1-.1.24.32.32,0,0,1-.24.08h-4.29a.33.33,0,0,1-.25-.09.41.41,0,0,1-.08-.24V375.24a.41.41,0,0,1,.08-.24.34.34,0,0,1,.25-.1Z"/><path d="M428.69,381.2a1.64,1.64,0,0,1,1.65,1.65,1.65,1.65,0,0,1-3.3,0,1.64,1.64,0,0,1,1.65-1.65Z"/><g id="Rect치ngulo_1_copia_4-2" data-name="Rect치ngulo 1 copia 4"><path class="cls-3" d="M303.12,137.52h6.24v-28.8h-6.24Zm33.26-.26,3.28.71,4.75-22.11-3.29-.7Zm-14.32-7.58,1.91.21,2-17.41-1.91-.21Zm31.91,7.6,1.82.62,5.59-16.61-1.82-.61Zm53.43,10.26-14.25,17.55,2.61,2.12L410,149.66Zm-13.92-10.32-9.65,14.62,1.6,1.06,9.65-14.63Zm27.85,23.6-12.51,12.26,1.34,1.37,12.51-12.26ZM452,205.88l-20.75,9,1.33,3.09,20.76-9Zm-7.56-15.6-15.32,8.5.93,1.68,15.32-8.5ZM442,231l16.76-5.08-.55-1.84-16.77,5.09Zm1.23,49.06,22.57,1.3L466,278l-22.57-1.31Zm5.5-18.67.08,1.92,17.51-.71-.08-1.92Zm-3,34.59L463,299l.33-1.89-17.26-3ZM363.29,150.08l5.54,2.86,13.23-25.58-5.54-2.86Zm71.41,21.49-23.24,17,3.69,5,23.24-17Zm30.83,67.79-28.27,5.47,1.18,6.12,28.28-5.47ZM268.07,115.86,272.82,138l3.28-.71-4.74-22.1Zm18.47-3.38,2,17.41,1.91-.21-2-17.41Zm-35.44,8.81,5.59,16.61,1.82-.62-5.59-16.6Zm-48.63,28.37,14.25,17.55,2.61-2.12-14.25-17.55Zm14.93-11.39,9.65,14.63,1.6-1.06L219,137.22Zm-27.59,23.92,12.51,12.26,1.34-1.37-12.51-12.26ZM159.18,209l20.76,9,1.33-3.09-20.75-9Zm8-17,15.32,8.5.93-1.68-15.32-8.5Zm3.93,37.22-16.77-5.09-.55,1.84L170.52,231ZM146.52,278l.2,3.35,22.57-1.3-.2-3.36Zm17.27-16.62-17.51-.71-.08,1.92,17.51.71Zm-14.63,35.68.33,1.89,17.26-3-.33-1.89Zm81.26-169.72,13.23,25.58,5.54-2.86L236,124.5Zm-56.33,49.25,23.24,17,3.69-5-23.24-17Zm-28.33,68.87L174,251l1.18-6.12L147,239.36Z"/></g></g></svg>