<?xml version="1.0" encoding="utf-8"?>
<!-- Generator: Adobe Illustrator 24.0.0, SVG Export Plug-In . SVG Version: 6.00 Build 0)  -->
<svg version="1.1" xmlns="http://www.w3.org/2000/svg" xmlns:xlink="http://www.w3.org/1999/xlink" x="0px" y="0px"
	 viewBox="0 0 612 528.72" style="enable-background:new 0 0 612 528.72;" xml:space="preserve">
<style type="text/css">
	.st0{enable-background:new    ;}
	.st1{fill:#DF0024;}
	.st2{fill:#FFFFFF;}
	.st3{fill-rule:evenodd;clip-rule:evenodd;fill:#FFFFFF;}
</style>
<g id="_x38_3">
</g>
<g id="Milla">
</g>
<g id="_xB7_autoboutique·">
</g>
<g id="Rectángulo_1_copia_4_1_" class="st0">
	<g>
		<g>
			<path class="st1" d="M234.4,135.55c10.14-0.33,19.17,1,27.07,3.99c7.9,3,14.47,7.11,19.71,12.36c5.24,5.24,9.11,11.48,11.6,18.72
				c2.49,7.24,3.49,14.94,2.99,23.09c-0.5,7.16-2,14.44-4.49,21.84c-2.49,7.41-5.91,14.48-10.23,21.22
				c-4.33,6.74-9.57,12.94-15.72,18.6c-6.16,5.66-13.14,10.4-20.96,14.23c7.32,1.83,13.6,4.58,18.84,8.24
				c5.24,3.66,9.48,7.99,12.72,12.98s5.53,10.57,6.86,16.73c1.33,6.16,1.83,12.57,1.5,19.22c-0.67,10.98-3.37,21.97-8.11,32.95
				c-4.74,10.98-11.27,20.93-19.58,29.83c-8.32,8.9-18.26,16.23-29.81,21.97c-11.56,5.74-24.41,8.86-38.55,9.36
				c-10.98,0.33-20.83-1.04-29.56-4.12c-8.73-3.08-16.05-7.49-21.95-13.23c-5.91-5.74-10.31-12.56-13.22-20.47
				c-2.91-7.9-4.12-16.35-3.62-25.34c0.34-7.49,1.87-15.19,4.62-23.09c2.74-7.9,6.57-15.44,11.48-22.59
				c4.9-7.15,10.85-13.69,17.84-19.6c6.99-5.91,14.97-10.61,23.95-14.1c-9.98-3.66-17.8-8.61-23.45-14.85
				c-5.66-6.24-9.48-13.19-11.48-20.85c-2-7.65-2.41-15.68-1.25-24.09c1.16-8.4,3.66-16.68,7.48-24.84
				c3.82-8.15,8.73-15.89,14.72-23.22c5.99-7.32,12.68-13.69,20.08-19.1c7.4-5.41,15.43-9.57,24.08-12.48
				C216.61,136.01,225.42,134.89,234.4,135.55z M208.82,289.33l-0.5,0.25c-5.84,0.84-11.09,3.41-15.76,7.74
				c-4.67,4.33-8.72,9.61-12.13,15.85c-3.42,6.24-6.13,13.11-8.13,20.59c-2,7.49-3.26,14.81-3.75,21.97
				c-0.34,5.66,0.17,11.03,1.5,16.1c1.33,5.08,3.34,9.53,6,13.36c2.67,3.83,6,6.91,10.01,9.24c4,2.33,8.67,3.5,14.01,3.5
				c8.34-0.66,15.84-3.08,22.52-7.24c6.67-4.16,12.38-9.24,17.14-15.23c4.76-5.99,8.51-12.56,11.26-19.72
				c2.75-7.15,4.29-14.14,4.63-20.97c0.16-6.16-0.46-12.07-1.88-17.73c-1.42-5.66-3.71-10.65-6.88-14.98
				c-3.17-4.33-7.25-7.7-12.26-10.11c-5.01-2.41-11.01-3.53-18.01-3.37C214.08,288.58,211.49,288.83,208.82,289.33z M229.91,155.27
				c-7.82,0.34-14.59,3.12-20.33,8.36c-5.74,5.24-10.35,11.78-13.85,19.6c-3.49,7.82-5.86,16.31-7.11,25.46
				c-1.25,9.15-1.21,17.77,0.12,25.84c1.33,8.07,3.95,14.94,7.86,20.6c3.91,5.66,9.19,8.91,15.84,9.74
				c7.65-0.66,14.63-3.41,20.96-8.24c6.32-4.82,11.81-10.61,16.47-17.35c4.65-6.74,8.31-14.02,10.98-21.84
				c2.66-7.82,4.16-15.14,4.49-21.97c0.5-12.31-2.41-22.22-8.73-29.71C250.29,158.27,241.39,154.77,229.91,155.27z"/>
			<path class="st1" d="M304.38,369.84c2.74,3.74,6.11,7.03,10.1,9.86c3.99,2.83,8.44,5.12,13.35,6.86
				c4.9,1.75,10.1,2.96,15.59,3.62c9.14,1.17,17.92,0.17,26.32-3c8.4-3.16,15.92-7.82,22.58-13.98
				c6.65-6.16,12.06-13.61,16.22-22.34c4.16-8.74,6.57-18.1,7.24-28.09c0.66-11.15-0.25-20.8-2.74-28.96
				c-2.49-8.15-6.36-14.69-11.6-19.6c-5.24-4.91-11.73-8.11-19.46-9.61c-7.73-1.5-16.51-1.16-26.32,1
				c-2.83,0.67-5.41,0.92-7.73,0.75c-2.33-0.16-4.41-0.91-6.24-2.25c-1.83-1.16-2.91-2.29-3.24-3.37c-0.33-1.08-0.29-2.12,0.12-3.12
				c0.41-1,1.12-2,2.12-3c1-1,2.08-2.16,3.24-3.49c3.99-4.83,7.69-9.28,11.1-13.36c3.41-4.08,6.69-7.95,9.86-11.61
				c10.64-12.65,18.84-22.47,24.57-29.46c5.74-6.99,9.89-12.15,12.47-15.48c2.58-3.33,3.99-5.28,4.24-5.87
				c0.25-0.58,0.29-0.87,0.12-0.87c-8.48,0.83-17.09,1.75-25.82,2.75c-8.73,1-17.67,1.67-26.82,2c-2.66,0.34-6.11,0.59-10.35,0.75
				c-4.24,0.17-8.61,0.04-13.1-0.37c-4.49-0.41-8.77-1.33-12.85-2.75c-4.08-1.41-7.28-3.62-9.61-6.62c-1.66-3-2.91-6.49-3.74-10.49
				c-0.83-3.99-0.83-9.15,0-15.48c0.33-2,0.79-3.66,1.37-4.99c0.58-1.33,1.29-1.91,2.12-1.75c1,0.34,2.37,1.08,4.12,2.25
				c1.75,1.17,4.03,1.92,6.86,2.25c2.83,0.67,7.02,0.96,12.6,0.87c5.57-0.08,11.85-0.33,18.84-0.75c6.98-0.41,14.43-0.87,22.33-1.37
				c7.9-0.5,15.63-0.96,23.2-1.37c7.57-0.41,14.59-0.58,21.08-0.5c6.49,0.09,11.89,0.54,16.22,1.37c6.49,1.33,11.06,3.91,13.72,7.74
				c2.66,3.83,3.99,8.32,3.99,13.48c0,7.99-1.62,15.65-4.87,22.97c-3.24,7.33-7.28,14.44-12.1,21.35
				c-4.83,6.91-10.1,13.65-15.84,20.22c-5.74,6.58-11.1,13.19-16.09,19.85c6.82,0.17,13.51,1.83,20.08,4.99
				c6.57,3.16,12.47,7.33,17.71,12.48c5.24,5.16,9.61,11.07,13.1,17.72c3.49,6.66,5.57,13.48,6.24,20.47
				c1.33,16.98-0.29,32.33-4.86,46.06c-4.58,13.73-11.64,25.46-21.21,35.2c-9.57,9.74-21.46,17.22-35.68,22.47
				c-14.22,5.24-30.23,7.86-48.03,7.86c-6.32,0-13.27-1.25-20.83-3.74c-7.57-2.5-14.64-5.99-21.21-10.49
				c-6.57-4.49-11.98-9.74-16.22-15.73c-4.24-5.99-6.03-12.48-5.36-19.47c0.17-1.16,0.37-2.41,0.62-3.75
				c0.25-1.33,0.71-2.75,1.37-4.24c0.5-0.83,1.37-1.58,2.62-2.25c1.25-0.66,2.53-1,3.87-1c1.33,0,2.45,0.33,3.37,1
				c0.91,0.67,1.37,1.83,1.37,3.49h0.25C299.77,361.81,301.64,366.09,304.38,369.84z"/>
		</g>
		<g>
			<path class="st2" d="M283.05,296.5l-11.72-13.23c-1.5-1.83-3.41-2.33-5.74-1.5c-0.17,0-0.34,0.09-0.5,0.25
				c-4.49,2-9.02,4.78-13.59,8.36c-4.58,3.58-9.19,7.65-13.84,12.23c-4.66,4.58-9.19,9.48-13.59,14.72
				c-4.41,5.24-8.6,10.44-12.6,15.6c-0.33,0.33-0.67,0.42-1,0.25c-0.34-0.16-0.34-0.41,0-0.75l11.72-27.7
				c1.16-3.16,0.66-5.9-1.5-8.23l-11.47-13.23c-1.83-1.83-3.83-2.33-5.99-1.5c-0.17,0-0.25,0.09-0.25,0.25
				c-4.49,2-9.15,4.83-13.97,8.49c-4.82,3.66-9.56,7.82-14.22,12.48c-4.66,4.66-9.23,9.69-13.72,15.1
				c-4.49,5.41-8.73,10.77-12.72,16.1c-0.17,0.34-0.37,0.42-0.62,0.25c-0.25-0.16-0.29-0.41-0.12-0.75l12.22-28.95
				c1.33-2.99,0.91-5.74-1.25-8.23l-11.72-13.23c-1.33-1.5-2.91-2.12-4.74-1.87c-1.83,0.25-3.16,1.29-3.99,3.12L71.81,441.49
				c-1.83,4.33-1.41,8.4,1.25,12.23l8.98,13.73c1.33,1.83,2.99,2.62,4.99,2.37c2-0.25,3.41-1.37,4.24-3.37l34.17-80.36
				c4.99-9.48,10.35-18.42,16.09-26.83c5.74-8.4,11.47-16.1,17.21-23.08c5.74-6.99,11.26-13.23,16.59-18.72
				c5.32-5.49,9.98-10.15,13.97-13.97c0.66-0.5,1.29-0.54,1.87-0.12c0.58,0.42,0.71,1.04,0.37,1.87l-57.36,136.26
				c-0.83,2-1.17,4.08-1,6.24c0.16,2.16,0.83,4.16,2,5.99l9.23,13.73c1.16,1.83,2.78,2.62,4.86,2.37c2.08-0.25,3.53-1.37,4.36-3.37
				l33.92-80.36c4.99-9.48,10.35-18.42,16.09-26.83c5.74-8.4,11.51-16.1,17.33-23.08c5.82-6.99,11.39-13.23,16.71-18.72
				c5.32-5.49,9.98-10.15,13.97-13.97c0.5-0.5,1.08-0.54,1.75-0.12c0.66,0.42,0.83,1.04,0.5,1.87l-57.61,136.26
				c-1.83,4.33-1.41,8.4,1.25,12.23l9.23,13.73c1.16,1.83,2.74,2.62,4.74,2.37c2-0.25,3.41-1.37,4.24-3.37l68.59-161.72
				C285.63,301.74,285.21,298.99,283.05,296.5z"/>
			<path class="st2" d="M307.24,346.16c1.16,1.33,2.66,1.92,4.49,1.75c1.83-0.16,3.16-1.08,3.99-2.75l16.96-30.7
				c0.99-2,0.83-3.99-0.5-5.99l-12.47-13.98c-1.33-1.33-2.87-1.87-4.61-1.62c-1.75,0.25-3.04,1.29-3.87,3.12l-14.22,33.19
				c-0.83,1.83-0.58,3.58,0.75,5.24L307.24,346.16z"/>
			<path class="st2" d="M535.19,364.88l-42.4,42.92l16.46-38.68c1.33-2.99,0.91-5.82-1.25-8.48l-11.22-12.48
				c-1.33-1.5-2.95-2.08-4.86-1.75c-1.91,0.34-3.29,1.42-4.12,3.24l-5.49,12.73c-1.66-2.49-3.58-4.82-5.74-6.99
				c-3.49-3.49-7.07-5.99-10.73-7.49c-3.66-1.5-7.36-1.58-11.1-0.25c-3.74,1.33-7.44,4.2-11.1,8.61c-2.06,2.48-4.08,5.57-6.08,9.22
				l-39.55,40.32l50.13-117.8c0.66-1.33,0.83-2.74,0.5-4.24c-0.33-1.5-1-2.91-1.99-4.24l-11.47-12.98c-1.33-1.5-2.91-2.12-4.74-1.87
				c-1.83,0.25-3.16,1.29-3.99,3.12l-41.23,97.16l-40.08,40.85l50.13-117.8c0.66-1.33,0.83-2.74,0.5-4.24
				c-0.33-1.5-1-2.91-1.99-4.24l-11.47-12.98c-1.33-1.5-2.91-2.12-4.74-1.87c-1.83,0.25-3.16,1.29-3.99,3.12l-41.23,97.16
				l-42.07,42.84l16.46-38.68c1.16-2.99,0.66-5.82-1.5-8.48l-10.97-12.48c-1.33-1.5-2.99-2.08-4.99-1.75
				c-2,0.34-3.41,1.42-4.24,3.24l-29.43,68.88c-1.83,4.33-1.41,8.4,1.25,12.23l10.72,16.47c1,1.33,2.29,2.04,3.87,2.12
				c1.58,0.08,2.87-0.54,3.87-1.87l46.12-56.8l-12.45,29.34c-1.83,4.16-1.41,8.23,1.25,12.23l9.98,15.22
				c0.83,1.33,2.04,1.95,3.62,1.87c1.58-0.09,2.79-0.71,3.62-1.87l47.07-57.27l-12.65,29.82c-1.83,4.16-1.41,8.23,1.25,12.23
				l9.98,15.22c0.83,1.33,2.04,1.95,3.62,1.87c1.58-0.09,2.79-0.71,3.62-1.87L424.27,394l-5.3,11.56c-2.16,5.33-3.37,9.9-3.62,13.73
				c-0.25,3.83-0.04,7.2,0.62,10.11c0.67,2.91,1.66,5.41,2.99,7.49c1.33,2.08,2.49,4.04,3.49,5.86l2.99,4.24
				c0.83,1.33,2.08,2.04,3.74,2.12c1.66,0.09,2.99-0.54,3.99-1.87l28.68-36.94l-3.49,8.24c-0.83,2-1.21,4.08-1.12,6.24
				c0.08,2.16,0.79,4.16,2.12,5.99l10.97,16.47c0.83,1.33,2.08,2.04,3.74,2.12c1.66,0.08,2.99-0.54,3.99-1.87l61.6-75.87
				L535.19,364.88z M474.84,380.1l-29.68,34.44l18.71-40.43c1.83-3.33,4.2-5.07,7.11-5.24c2.91-0.16,5.36,0.67,7.36,2.5
				L474.84,380.1z"/>
		</g>
		<g>
			<path class="st2" d="M230.05,467.14c0.67,0,1.19,0.16,1.55,0.49c0.37,0.33,0.55,0.78,0.55,1.37c0,0.59-0.18,1.05-0.55,1.38
				c-0.37,0.33-0.89,0.5-1.55,0.5c-0.65,0-1.16-0.17-1.53-0.5s-0.55-0.79-0.55-1.38c0-0.59,0.18-1.04,0.55-1.37
				C228.89,467.3,229.4,467.14,230.05,467.14z"/>
			<path class="st2" d="M249.65,455.37c0.15,0,0.27,0.05,0.35,0.15c0.08,0.1,0.13,0.22,0.15,0.35l2.76,28.47
				c0.02,0.15-0.03,0.29-0.14,0.43s-0.28,0.2-0.51,0.2h-1.23c-0.42,0-0.76-0.12-1.04-0.36c-0.28-0.24-0.43-0.54-0.46-0.89
				l-0.25-4.04h-2.08l-0.25,4.04c-0.03,0.35-0.19,0.65-0.46,0.89c-0.28,0.24-0.62,0.36-1.04,0.36h-1.23c-0.23,0-0.41-0.07-0.51-0.2
				s-0.15-0.28-0.14-0.43l2.76-28.47c0.02-0.13,0.07-0.25,0.15-0.35c0.08-0.1,0.2-0.15,0.35-0.15H249.65z M247.37,476.87h1.73
				l-0.88-14.27L247.37,476.87z"/>
			<path class="st2" d="M274.42,481.06c0,1.34-0.42,2.39-1.27,3.16c-0.84,0.77-2.03,1.15-3.55,1.15c-0.74,0-1.4-0.1-1.98-0.3
				c-0.58-0.2-1.09-0.49-1.52-0.87s-0.75-0.83-0.98-1.35c-0.23-0.53-0.34-1.12-0.34-1.79V455.9c0-0.15,0.04-0.28,0.13-0.38
				c0.08-0.1,0.21-0.15,0.38-0.15h1.4c0.43,0,0.79,0.12,1.05,0.35c0.27,0.23,0.4,0.54,0.4,0.93v24.41c0,0.45,0.12,0.82,0.35,1.09
				s0.6,0.41,1.1,0.41c0.48,0,0.85-0.14,1.09-0.41c0.24-0.28,0.36-0.64,0.36-1.09v-24.41c0-0.38,0.13-0.69,0.4-0.93
				s0.62-0.35,1.05-0.35h1.4c0.17,0,0.29,0.05,0.38,0.15c0.08,0.1,0.13,0.23,0.13,0.38V481.06z"/>
			<path class="st2" d="M294.75,455.37c0.15,0,0.28,0.04,0.38,0.12c0.1,0.08,0.15,0.21,0.15,0.38v0.85c0,0.44-0.12,0.79-0.35,1.05
				c-0.23,0.27-0.54,0.4-0.93,0.4h-1.55v25.89c0,0.25-0.09,0.46-0.26,0.64c-0.17,0.17-0.39,0.26-0.64,0.26h-1.55
				c-0.25,0-0.46-0.09-0.64-0.26c-0.17-0.18-0.26-0.39-0.26-0.64v-25.89h-1.55c-0.38,0-0.69-0.13-0.93-0.4
				c-0.23-0.27-0.35-0.62-0.35-1.05v-0.85c0-0.17,0.05-0.29,0.15-0.38c0.1-0.08,0.23-0.12,0.38-0.12H294.75z"/>
			<path class="st2" d="M306.36,459.29c0-1.34,0.42-2.39,1.27-3.16c0.84-0.77,2.02-1.15,3.55-1.15c0.72,0,1.38,0.1,1.97,0.3
				c0.59,0.2,1.1,0.49,1.53,0.87c0.43,0.38,0.75,0.83,0.98,1.35c0.23,0.53,0.34,1.12,0.34,1.79v21.77c0,1.34-0.42,2.39-1.27,3.16
				c-0.84,0.77-2.03,1.15-3.55,1.15c-0.73,0-1.4-0.1-1.98-0.3c-0.58-0.2-1.09-0.49-1.52-0.87c-0.43-0.38-0.75-0.83-0.98-1.35
				c-0.23-0.53-0.34-1.12-0.34-1.79V459.29z M312.63,459.29c0-0.45-0.12-0.82-0.35-1.09c-0.23-0.28-0.6-0.41-1.1-0.41
				c-0.49,0-0.85,0.14-1.09,0.41c-0.24,0.28-0.36,0.64-0.36,1.09v21.77c0,0.45,0.12,0.82,0.35,1.09s0.6,0.41,1.1,0.41
				c0.49,0,0.85-0.14,1.09-0.41c0.24-0.28,0.36-0.64,0.36-1.09V459.29z"/>
			<path class="st2" d="M333.33,455.37c0.72,0,1.38,0.1,1.97,0.3c0.59,0.2,1.1,0.49,1.53,0.86c0.43,0.38,0.75,0.83,0.98,1.36
				c0.23,0.53,0.34,1.12,0.34,1.79v7.25c0,0.74-0.15,1.34-0.44,1.81c-0.29,0.47-0.7,0.84-1.22,1.13c0.52,0.28,0.92,0.66,1.22,1.12
				c0.29,0.46,0.44,1.05,0.44,1.77v7.9c0,1.34-0.44,2.39-1.3,3.16c-0.87,0.77-2.04,1.15-3.51,1.15h-4.31
				c-0.17,0-0.29-0.05-0.38-0.15c-0.08-0.1-0.13-0.23-0.13-0.38V455.9c0-0.15,0.04-0.28,0.13-0.38c0.08-0.1,0.21-0.15,0.38-0.15
				H333.33z M333.33,468.44c0.5,0,0.87-0.14,1.1-0.43s0.35-0.64,0.35-1.08v-7.25c0-0.45-0.12-0.82-0.35-1.09
				c-0.23-0.28-0.6-0.41-1.1-0.41h-1.45v10.26H333.33z M331.88,471.25v10.91h1.45c0.52,0,0.89-0.14,1.12-0.43
				c0.23-0.28,0.34-0.64,0.34-1.08v-7.9c0-0.44-0.12-0.79-0.35-1.08s-0.6-0.43-1.1-0.43H331.88z"/>
			<path class="st2" d="M350.68,459.29c0-1.34,0.42-2.39,1.27-3.16c0.84-0.77,2.02-1.15,3.55-1.15c0.72,0,1.38,0.1,1.97,0.3
				c0.59,0.2,1.1,0.49,1.53,0.87c0.43,0.38,0.75,0.83,0.98,1.35c0.23,0.53,0.34,1.12,0.34,1.79v21.77c0,1.34-0.42,2.39-1.27,3.16
				c-0.84,0.77-2.03,1.15-3.55,1.15c-0.73,0-1.4-0.1-1.98-0.3c-0.58-0.2-1.09-0.49-1.52-0.87c-0.43-0.38-0.75-0.83-0.98-1.35
				c-0.23-0.53-0.34-1.12-0.34-1.79V459.29z M356.94,459.29c0-0.45-0.12-0.82-0.35-1.09c-0.23-0.28-0.6-0.41-1.1-0.41
				c-0.49,0-0.85,0.14-1.09,0.41c-0.24,0.28-0.36,0.64-0.36,1.09v21.77c0,0.45,0.12,0.82,0.35,1.09s0.6,0.41,1.1,0.41
				c0.49,0,0.85-0.14,1.09-0.41s0.36-0.64,0.36-1.09V459.29z"/>
			<path class="st2" d="M382.46,481.06c0,1.34-0.42,2.39-1.27,3.16c-0.84,0.77-2.03,1.15-3.55,1.15c-0.73,0-1.4-0.1-1.98-0.3
				c-0.58-0.2-1.09-0.49-1.52-0.87c-0.43-0.38-0.75-0.83-0.98-1.35c-0.23-0.53-0.34-1.12-0.34-1.79V455.9
				c0-0.15,0.04-0.28,0.13-0.38s0.21-0.15,0.38-0.15h1.4c0.43,0,0.79,0.12,1.05,0.35c0.27,0.23,0.4,0.54,0.4,0.93v24.41
				c0,0.45,0.12,0.82,0.35,1.09s0.6,0.41,1.1,0.41c0.49,0,0.85-0.14,1.09-0.41s0.36-0.64,0.36-1.09v-24.41
				c0-0.38,0.13-0.69,0.4-0.93c0.27-0.23,0.62-0.35,1.05-0.35h1.4c0.17,0,0.29,0.05,0.38,0.15c0.08,0.1,0.12,0.23,0.12,0.38V481.06z
				"/>
			<path class="st2" d="M402.79,455.37c0.15,0,0.28,0.04,0.38,0.12s0.15,0.21,0.15,0.38v0.85c0,0.44-0.12,0.79-0.35,1.05
				c-0.23,0.27-0.54,0.4-0.93,0.4h-1.55v25.89c0,0.25-0.09,0.46-0.26,0.64c-0.17,0.17-0.39,0.26-0.64,0.26h-1.55
				c-0.25,0-0.46-0.09-0.64-0.26c-0.17-0.18-0.26-0.39-0.26-0.64v-25.89h-1.55c-0.38,0-0.69-0.13-0.93-0.4
				c-0.23-0.27-0.35-0.62-0.35-1.05v-0.85c0-0.17,0.05-0.29,0.15-0.38s0.23-0.12,0.38-0.12H402.79z"/>
			<path class="st2" d="M415.15,456.65c0-0.38,0.13-0.69,0.4-0.93s0.62-0.35,1.05-0.35h1.4c0.17,0,0.29,0.05,0.38,0.15
				s0.13,0.23,0.13,0.38v28.17c0,0.25-0.09,0.46-0.26,0.64c-0.18,0.17-0.39,0.26-0.64,0.26h-1.55c-0.25,0-0.46-0.09-0.64-0.26
				c-0.17-0.18-0.26-0.39-0.26-0.64V456.65z"/>
			<path class="st2" d="M434.95,487.63c-0.49,0-0.85-0.14-1.09-0.41c-0.24-0.28-0.36-0.63-0.36-1.07v-1.2
				c-0.79-0.33-1.39-0.83-1.82-1.49c-0.43-0.66-0.64-1.46-0.64-2.39v-21.77c0-1.34,0.42-2.39,1.27-3.16
				c0.84-0.77,2.02-1.15,3.55-1.15c0.72,0,1.38,0.1,1.97,0.3c0.59,0.2,1.1,0.49,1.53,0.87c0.43,0.38,0.75,0.83,0.98,1.35
				c0.23,0.53,0.34,1.12,0.34,1.79v21.77c0,1.19-0.33,2.15-1,2.88c-0.67,0.74-1.61,1.19-2.81,1.35v1.81c0,0.15-0.04,0.28-0.12,0.38
				s-0.21,0.15-0.38,0.15H434.95z M437.31,459.29c0-0.45-0.12-0.82-0.35-1.09c-0.23-0.28-0.6-0.41-1.1-0.41
				c-0.49,0-0.85,0.14-1.09,0.41c-0.24,0.28-0.36,0.64-0.36,1.09v21.62h1c0.43,0,0.78,0.12,1.03,0.38c0.25,0.25,0.39,0.57,0.43,0.95
				c0.3-0.25,0.45-0.64,0.45-1.18V459.29z"/>
			<path class="st2" d="M462.83,481.06c0,1.34-0.42,2.39-1.27,3.16c-0.84,0.77-2.03,1.15-3.55,1.15c-0.73,0-1.4-0.1-1.98-0.3
				c-0.58-0.2-1.09-0.49-1.52-0.87c-0.43-0.38-0.75-0.83-0.98-1.35c-0.23-0.53-0.34-1.12-0.34-1.79V455.9
				c0-0.15,0.04-0.28,0.13-0.38s0.21-0.15,0.38-0.15h1.4c0.43,0,0.79,0.12,1.05,0.35c0.27,0.23,0.4,0.54,0.4,0.93v24.41
				c0,0.45,0.12,0.82,0.35,1.09s0.6,0.41,1.1,0.41c0.49,0,0.85-0.14,1.09-0.41c0.24-0.28,0.36-0.64,0.36-1.09v-24.41
				c0-0.38,0.13-0.69,0.4-0.93c0.27-0.23,0.62-0.35,1.05-0.35h1.4c0.17,0,0.29,0.05,0.38,0.15c0.08,0.1,0.12,0.23,0.12,0.38V481.06z
				"/>
			<path class="st2" d="M482.56,455.37c0.15,0,0.28,0.04,0.38,0.12c0.1,0.08,0.15,0.21,0.15,0.38v0.85c0,0.44-0.12,0.79-0.35,1.05
				c-0.23,0.27-0.54,0.4-0.93,0.4h-3.08v10.76h3.33c0.15,0,0.28,0.04,0.38,0.12c0.1,0.09,0.15,0.21,0.15,0.38v0.85
				c0,0.44-0.12,0.79-0.35,1.05s-0.54,0.4-0.93,0.4h-2.58v10.41h3.08c0.38,0,0.69,0.13,0.93,0.4s0.35,0.62,0.35,1.05v0.85
				c0,0.17-0.05,0.29-0.15,0.38c-0.1,0.08-0.23,0.12-0.38,0.12h-6.69c-0.17,0-0.29-0.05-0.38-0.15c-0.08-0.1-0.13-0.23-0.13-0.38
				V455.9c0-0.15,0.04-0.28,0.13-0.38c0.08-0.1,0.21-0.15,0.38-0.15H482.56z"/>
			<path class="st2" d="M497,465.18c0.72,0,1.33,0.25,1.82,0.75c0.5,0.5,0.75,1.11,0.75,1.82c0,0.7-0.25,1.31-0.76,1.81
				c-0.51,0.51-1.11,0.76-1.81,0.76s-1.31-0.25-1.81-0.76c-0.51-0.51-0.76-1.11-0.76-1.81c0-0.72,0.25-1.33,0.75-1.82
				C495.67,465.43,496.28,465.18,497,465.18z"/>
		</g>
		<g id="Rectángulo_1_copia_4">
			<g>
				<path class="st3" d="M301.38,85.57h9.72V40.7h-9.72V85.57z M353.19,85.16l5.12,1.1l7.39-34.43l-5.12-1.1L353.19,85.16z
					 M330.88,73.35l2.97,0.34l3.07-27.12l-2.97-0.34L330.88,73.35z M380.59,85.2l2.83,0.95l8.71-25.87l-2.83-0.95L380.59,85.2z
					 M463.83,101.17l-22.2,27.34l4.07,3.3l22.2-27.34L463.83,101.17z M442.14,85.09l-15.03,22.78l2.5,1.65l15.03-22.78L442.14,85.09
					z M485.53,121.86l-19.49,19.11l2.09,2.14l19.49-19.11L485.53,121.86z M533.25,192.05l-32.33,13.96l2.08,4.81l32.33-13.96
					L533.25,192.05z M521.47,167.76L497.6,181l1.45,2.62l23.87-13.24L521.47,167.76z M517.67,231.22l26.12-7.92l-0.87-2.86
					l-26.12,7.92L517.67,231.22z M519.59,307.63l35.16,2.04l0.3-5.23l-35.16-2.04L519.59,307.63z M528.16,278.55l0.12,2.99
					l27.27-1.11l-0.12-2.99L528.16,278.55z M523.54,332.44l26.89,4.65l0.51-2.95l-26.89-4.65L523.54,332.44z M395.11,105.12
					l8.63,4.47l20.62-39.85l-8.63-4.47L395.11,105.12z M506.37,138.61l-36.21,26.5l5.74,7.84l36.21-26.5L506.37,138.61z
					 M554.39,244.21l-44.05,8.52l1.85,9.54l44.05-8.52L554.39,244.21z M246.78,51.83l7.39,34.43l5.12-1.1l-7.39-34.43L246.78,51.83z
					 M275.55,46.56l3.07,27.12l2.97-0.34l-3.07-27.12L275.55,46.56z M220.35,60.28l8.71,25.87l2.83-0.95l-8.71-25.87L220.35,60.28z
					 M144.59,104.47l22.2,27.34l4.07-3.3l-22.2-27.34L144.59,104.47z M167.84,86.74l15.03,22.78l2.5-1.65l-15.03-22.78L167.84,86.74
					z M124.86,123.99l19.49,19.11l2.09-2.14l-19.49-19.11L124.86,123.99z M77.15,196.86l32.33,13.96l2.08-4.81l-32.33-13.96
					L77.15,196.86z M89.56,170.38l23.87,13.24l1.45-2.62l-23.87-13.24L89.56,170.38z M95.68,228.35l-26.12-7.92l-0.87,2.86
					l26.12,7.92L95.68,228.35z M57.43,304.44l0.3,5.23l35.16-2.04l-0.3-5.23L57.43,304.44z M84.32,278.55l-27.27-1.11l-0.12,2.99
					l27.27,1.11L84.32,278.55z M61.53,334.14l0.51,2.95l26.89-4.65l-0.51-2.95L61.53,334.14z M188.12,69.75l20.62,39.85l8.63-4.47
					l-20.62-39.85L188.12,69.75z M100.37,146.46l36.21,26.5l5.74-7.84l-36.21-26.5L100.37,146.46z M56.24,253.76l44.05,8.52
					l1.85-9.54l-44.05-8.52L56.24,253.76z"/>
			</g>
		</g>
	</g>
</g>
</svg>
